# xmcd
#
# Track frame offsets:
#	182
#	10480
#	27755
#	39705
#	51200
#	64040
#	76002
#	87622
#	101027
#	119495
#	131715
#	145210
#	157992
#	171037
#	182217
#	192125
#	205447
#	220665
#	234280
#	247890
#
# Disc length: 3499 seconds
#
# Revision: 1
# Processed by: cddbd v1.4b41PL1 Copyright (c) Steve Scherf et al.
# Submitted via: audiograbber 1.80
#
DISCID=140da914
DTITLE=Jack Jezzro and Ed Kee - Smoky Mountain Hymns - Vol 2 Of 2
DYEAR=1900
DGENRE=
TTITLE0=Old Time Religion
TTITLE1=In The Sweet By And By
TTITLE2=Standing On The Promises
TTITLE3=I Am Bound For The Promised Land
TTITLE4=When The Roll Is Called Up Yonder
TTITLE5=What A Friend We Have In Jesus
TTITLE6=Blessed Be The Name
TTITLE7=I'll Fly Away
TTITLE8=I Love To Tell The Story
TTITLE9=Stand Up, Stand Up For Jesus
TTITLE10=How Great Thou Art
TTITLE11=Battle Hymn Of The Republic
TTITLE12=Love Lifted Me
TTITLE13=I Saw The Light
TTITLE14=Great Speckled Bird
TTITLE15=In The Garden
TTITLE16=At Calvary
TTITLE17=Gospel Train
TTITLE18=The Old Rugged Cross
TTITLE19=Precious Lord, Take My Hand
EXTD=
EXTT0=
EXTT1=
EXTT2=
EXTT3=
EXTT4=
EXTT5=
EXTT6=
EXTT7=
EXTT8=
EXTT9=
EXTT10=
EXTT11=
EXTT12=
EXTT13=
EXTT14=
EXTT15=
EXTT16=
EXTT17=
EXTT18=
EXTT19=
PLAYORDER=
